<?xml version="1.0" encoding="UTF-8"?>
<!DOCTYPE svg PUBLIC "-//W3C//DTD SVG 1.1//EN" "http://www.w3.org/Graphics/SVG/1.1/DTD/svg11.dtd">
<svg xmlns="http://www.w3.org/2000/svg" xml:space="preserve" width="2450px" height="655px" version="1.1" style="shape-rendering:geometricPrecision; text-rendering:geometricPrecision; image-rendering:optimizeQuality; fill-rule:evenodd; clip-rule:evenodd"
viewBox="0 0 2611 698"
 xmlns:xlink="http://www.w3.org/1999/xlink">
 <defs>
  <style type="text/css">
   <![CDATA[
    .fil0 {fill:black}
    .fil1 {fill:black;fill-rule:nonzero}
   ]]>
  </style>
 </defs>
 <g id="Layer_x0020_1">
  <metadata id="Choojoy"/>
  <rect class="fil0" width="818" height="126"/>
  <rect class="fil0" x="205" y="189" width="614" height="126"/>
  <rect class="fil0" x="409" y="378" width="409" height="126"/>
  <rect class="fil0" x="614" y="567" width="205" height="126"/>
  <path class="fil1" d="M1065 291l-111 -286 41 0 74 208c6,17 11,32 15,47 4,-16 10,-31 15,-47l77 -208 39 0 -112 286 -39 0z"/>
  <polygon id="1" class="fil1" points="1256,291 1256,5 1294,5 1294,291 "/>
  <path id="2" class="fil1" d="M1349 199l36 -3c2,14 6,26 12,35 6,9 16,17 29,22 13,6 28,9 44,9 14,0 27,-2 38,-6 11,-4 19,-10 25,-18 5,-8 8,-16 8,-25 0,-9 -3,-17 -8,-23 -5,-7 -14,-12 -26,-17 -8,-3 -25,-8 -51,-14 -26,-6 -45,-12 -55,-18 -14,-7 -24,-16 -30,-27 -7,-11 -10,-23 -10,-36 0,-15 4,-28 12,-41 8,-13 20,-22 36,-29 16,-7 33,-10 53,-10 21,0 40,3 56,10 16,7 29,17 37,30 9,13 13,28 14,45l-36 3c-2,-18 -9,-32 -20,-41 -11,-9 -28,-14 -50,-14 -23,0 -40,4 -50,13 -10,8 -16,19 -16,30 0,10 4,19 11,25 7,7 26,13 57,20 31,7 52,13 63,18 17,8 29,17 37,29 8,12 12,25 12,41 0,15 -4,30 -13,43 -9,13 -21,24 -38,31 -16,7 -35,11 -55,11 -26,0 -48,-4 -65,-11 -18,-8 -31,-19 -41,-34 -10,-15 -15,-32 -16,-51z"/>
  <path id="3" class="fil1" d="M1816 5l38 0 0 165c0,29 -3,52 -10,69 -7,17 -18,31 -35,41 -17,11 -39,16 -67,16 -27,0 -49,-5 -66,-14 -17,-9 -29,-23 -36,-40 -7,-18 -11,-41 -11,-72l0 -165 38 0 0 165c0,25 2,43 7,55 5,12 12,21 24,27 11,6 25,10 41,10 28,0 48,-6 59,-19 12,-13 18,-37 18,-73l0 -165z"/>
  <path id="4" class="fil1" d="M1886 291l110 -286 42 0 117 286 -43 0 -33 -87 -121 0 -31 87 -40 0zm82 -118l98 0 -30 -79c-9,-24 -16,-44 -21,-60 -4,19 -9,37 -16,55l-31 84z"/>
  <polygon id="5" class="fil1" points="2182,291 2182,5 2220,5 2220,258 2361,258 2361,291 "/>
  <path id="6" class="fil1" d="M981 694l0 -286 108 0c22,0 39,3 53,9 13,6 24,15 31,27 8,12 11,25 11,38 0,12 -3,24 -10,35 -7,11 -17,20 -30,26 17,5 31,14 40,26 9,12 14,27 14,43 0,13 -3,26 -9,37 -6,12 -13,20 -21,27 -8,6 -19,11 -31,14 -13,3 -28,5 -46,5l-109 0zm38 -166l62 0c17,0 29,-1 36,-3 10,-3 17,-8 22,-14 5,-7 7,-15 7,-25 0,-10 -2,-18 -7,-25 -5,-7 -11,-12 -20,-15 -8,-3 -23,-4 -44,-4l-57 0 0 87zm0 132l71 0c12,0 21,0 26,-1 9,-2 16,-4 22,-8 6,-4 11,-9 14,-16 4,-7 6,-15 6,-24 0,-11 -3,-20 -8,-28 -5,-8 -13,-13 -23,-17 -10,-3 -24,-5 -42,-5l-66 0 0 99z"/>
  <path id="7" class="fil1" d="M1438 407l38 0 0 165c0,29 -3,52 -10,69 -7,17 -18,31 -35,41 -17,11 -39,16 -67,16 -27,0 -49,-5 -66,-14 -17,-9 -29,-23 -36,-40 -7,-18 -11,-41 -11,-72l0 -165 38 0 0 165c0,25 2,43 7,55 5,12 12,21 24,27 11,6 25,10 41,10 28,0 48,-6 59,-19 12,-13 18,-37 18,-73l0 -165z"/>
  <path id="8" class="fil1" d="M1539 694l0 -286 99 0c22,0 39,1 51,4 16,4 30,11 42,21 15,13 26,29 34,49 8,20 11,43 11,68 0,22 -3,41 -8,58 -5,17 -12,31 -20,42 -8,11 -17,20 -26,26 -9,6 -21,11 -34,14 -13,3 -29,5 -46,5l-103 0zm38 -34l61 0c19,0 34,-2 44,-5 11,-4 19,-8 26,-15 9,-9 16,-21 21,-36 5,-15 8,-34 8,-55 0,-30 -5,-53 -15,-69 -10,-16 -22,-27 -36,-32 -10,-4 -26,-6 -49,-6l-60 0 0 219z"/>
  <path id="9" class="fil1" d="M1962 581l0 -34 121 0 0 106c-19,15 -38,26 -58,33 -20,7 -40,11 -61,11 -28,0 -54,-6 -77,-18 -23,-12 -40,-29 -52,-52 -12,-23 -18,-48 -18,-76 0,-28 6,-54 17,-78 12,-24 28,-42 50,-54 22,-12 47,-18 76,-18 21,0 39,3 56,10 17,7 30,16 39,28 10,12 17,28 22,47l-34 9c-4,-15 -10,-26 -16,-34 -6,-8 -15,-15 -27,-20 -12,-5 -25,-8 -39,-8 -17,0 -32,3 -45,8 -13,5 -23,12 -31,21 -8,9 -14,18 -18,28 -7,18 -11,37 -11,58 0,26 4,47 13,64 9,17 22,30 38,38 17,8 35,13 53,13 16,0 32,-3 48,-10 16,-6 27,-13 35,-20l0 -54 -84 0z"/>
  <polygon id="10" class="fil1" points="2140,694 2140,407 2347,407 2347,441 2178,441 2178,529 2336,529 2336,562 2178,562 2178,660 2354,660 2354,694 "/>
  <polygon id="11" class="fil1" points="2479,694 2479,441 2384,441 2384,407 2611,407 2611,441 2517,441 2517,694 "/>
 </g>
</svg>
